<?xml version="1.0" encoding="UTF-8" standalone="no" ?>
<!DOCTYPE svg PUBLIC "-//W3C//DTD SVG 1.1//EN" "http://www.w3.org/Graphics/SVG/1.1/DTD/svg11.dtd">
<svg xmlns="http://www.w3.org/2000/svg" xmlns:xlink="http://www.w3.org/1999/xlink" version="1.1" width="250" height="70" viewBox="0 0 250 70" xml:space="preserve">
<desc>Created with Fabric.js 5.2.4</desc>
<defs>
</defs>
<rect x="0" y="0" width="100%" height="100%" fill="transparent"></rect>
<g transform="matrix(1 0 0 1 125 35)" id="0b9e3efe-619d-45bb-9f63-8e19342dc98e"  >
<rect style="stroke: none; stroke-width: 1; stroke-dasharray: none; stroke-linecap: butt; stroke-dashoffset: 0; stroke-linejoin: miter; stroke-miterlimit: 4; fill: rgb(255,255,255); fill-rule: nonzero; opacity: 1; visibility: hidden;" vector-effect="non-scaling-stroke"  x="-125" y="-35" rx="0" ry="0" width="250" height="70" />
</g>
<g transform="matrix(Infinity NaN NaN Infinity 0 0)" id="39b66644-c849-4439-a2e3-57e8a12d1e15"  >
</g>
<g transform="matrix(1.54 0 0 1.54 125 35)" id="SvgjsG3960"  >
<path style="stroke: none; stroke-width: 1; stroke-dasharray: none; stroke-linecap: butt; stroke-dashoffset: 0; stroke-linejoin: miter; stroke-miterlimit: 4; fill: rgb(57,62,70); fill-rule: nonzero; opacity: 1;"  transform=" translate(-80.52, -26.24)" d="M 2.3037 14.181999999999999 C 2.292919 13.920399999999999 2.16226 13.67804 1.9490500000000002 13.526079999999999 L 0.7798500000000002 13.189669999999998 C 0.5874700000000002 12.631269999999997 0.5874700000000002 12.631269999999997 0.7698500000000001 12.214469999999999 C 1.0406300000000002 12.089669999999998 1.3414100000000002 12.04408 1.63701 12.083689999999999 C 2.5702100000000003 12.090486799999999 3.50381 12.110878 4.43741 12.125682 C 6.04301 12.148494 7.64821 12.199705999999999 9.25381 12.127713199999999 C 9.962209999999999 12.0961112 10.67341 12.1057212 11.38261 12.1185336 C 13.53181 12.130525599999999 15.610209999999999 12.887733599999999 17.26341 14.2609336 C 18.06181 14.887733599999999 18.66741 15.7273336 19.00981 16.6829336 C 19.349420000000002 17.552133599999998 19.59101 18.4565336 19.72981 19.3793336 C 19.801802000000002 19.9725336 19.792582 20.5729336 19.703365 21.1637336 C 19.589775000000003 21.9025336 19.377385 22.6229336 19.072565 23.3057336 C 18.714555 24.2193336 18.054165 24.9825336 17.201365000000003 25.4677336 C 16.805345000000003 25.6757436 16.428565000000003 25.920933599999998 16.044965 26.1517336 C 15.036565000000001 26.7273336 13.916565000000002 27.0792936 12.760165 27.1841336 C 11.612165000000001 27.3213236 10.462565000000001 27.4401136 9.310965000000001 27.5493336 C 8.902965000000002 27.588122600000002 8.490565000000002 27.5733176 8.080165000000001 27.588903600000002 C 7.862545000000001 27.560505600000003 7.641325000000001 27.5992946 7.446525000000001 27.7005036 C 7.317735000000001 27.8437036 7.260945000000001 28.038123600000002 7.291725000000001 28.2281036 C 7.275709000000002 29.4605036 7.257701000000002 30.6929036 7.253287000000001 31.9253036 C 7.247701000000001 33.5313036 7.249693200000001 35.1373036 7.259302600000001 36.743703599999996 C 7.259302600000001 37.1165136 7.282896600000001 37.4897036 7.3109026 37.8617036 C 7.342504600000001 38.1509236 7.5196926 38.4033036 7.7809026 38.5313036 L 8.660502600000001 38.6745036 C 8.7328866 38.7732916 8.8028826 38.8272736 8.8140926 38.8912636 C 8.845303600000001 39.0732536 8.8613206 39.257673600000004 8.8613206 39.4424636 C 8.854914200000001 39.6344536 8.7241306 39.8000436 8.5389406 39.850823600000005 C 8.3945306 39.885628600000004 8.2473406 39.906839600000005 8.0989406 39.914027600000004 C 6.941740600000001 39.921215200000006 5.7853406000000005 39.918012000000004 4.626940600000001 39.9240276 C 4.253740600000001 39.9240276 3.880540600000001 39.950433600000004 3.507340600000001 39.9548476 C 2.722140600000001 39.9648476 1.938140600000001 39.9704336 1.154940600000001 39.9712146 C 1.0477506000000012 39.964027 0.941740600000001 39.9476206 0.8373206000000011 39.9224266 C 0.47290060000000106 39.518826600000004 0.47091060000000107 39.342026600000004 0.8121256000000011 38.7300266 C 1.0477056000000011 38.6152266 1.307325600000001 38.5592066 1.569325600000001 38.566396600000004 C 1.958115600000001 38.52877960000001 2.2585256000000014 38.2079966 2.270485600000001 37.8175966 C 2.288883600000001 37.6320166 2.291696600000001 37.4448266 2.2948996000000013 37.2584366 C 2.3368916000000013 34.233636600000004 2.369703600000001 31.209236600000004 2.3368916000000013 28.183636600000003 C 2.311696600000001 25.870036600000002 2.3268916000000015 23.552036600000005 2.3368916000000013 21.236836600000004 C 2.343298000000001 19.406836600000005 2.3729076000000013 17.577236600000003 2.378923600000001 15.747636600000003 C 2.378923600000001 15.226036600000004 2.336931600000001 14.703636600000003 2.303727600000001 14.182036600000004 z M 7.2584 25.228 C 7.224806 25.48601 7.281955 25.74808 7.42074 25.968480000000003 C 7.942740000000001 26.043676 8.470740000000001 26.067660000000004 8.99754 26.039260000000002 C 9.820340000000002 26.059260000000002 10.63874 25.911640000000002 11.402740000000001 25.605220000000003 C 11.575940000000001 25.536820000000002 11.757540000000002 25.489200000000004 11.927940000000001 25.414790000000004 C 13.408740000000002 24.811590000000002 14.501940000000001 23.524390000000004 14.857940000000001 21.965590000000002 C 15.083960000000001 21.020390000000003 15.179150000000002 20.048790000000004 15.141960000000001 19.077990000000003 C 15.121569000000001 18.406390000000002 15.00716 17.741190000000003 14.80235 17.101190000000003 C 14.474730000000001 15.981990000000003 13.80115 14.995590000000004 12.87875 14.282790000000002 C 12.378350000000001 13.892400000000002 11.79635 13.619190000000001 11.17635 13.483990000000002 C 10.037949999999999 13.275200000000002 8.87835 13.207190000000002 7.7235499999999995 13.282390000000003 C 7.547969999999999 13.286374400000003 7.387969999999999 13.383560000000003 7.30275 13.537150000000002 C 7.288766 14.069950000000002 7.260758 14.665950000000002 7.258374 15.261550000000002 C 7.2531788 17.68795 7.258374 20.113950000000003 7.258374 22.540350000000004 C 7.258374 23.435950000000005 7.2543896 24.332350000000005 7.258374 25.227950000000003 z M 43.8 36.2832 C 43.823203 36.39242 43.837422 36.50347 43.842228 36.61508 C 43.825431 37.39948 43.801016 38.183479999999996 43.7834 38.96748 C 43.7910172 39.23146 43.723828 39.49268 43.58984 39.72028 C 43.380230000000005 39.9379 43.085440000000006 40.052310000000006 42.783840000000005 40.032700000000006 C 41.88544 40.035082800000005 40.988640000000004 40.03828600000001 40.091840000000005 40.035082800000005 C 37.476240000000004 40.0234808 34.860640000000004 40.0134808 32.24504 40.005473800000004 C 30.825440000000004 40.000669 29.406240000000004 40.0030519 27.98664 40.0030519 C 26.006240000000002 40.0054347 24.025840000000002 40.0046535 22.04544 40.0006691 C 21.747429999999998 40.0006691 21.44664 39.9846531 21.15224 39.958637100000004 C 20.92782 39.9054331 20.76064 39.7166471 20.735039999999998 39.4870371 C 20.662656 39.1442271 20.86188 38.8018371 21.19588 38.6954371 C 21.29588 38.6526251 21.400679999999998 38.6198131 21.47428 38.5926271 C 21.59506 38.4830171 21.65744 38.3230171 21.64225 38.1602271 C 21.605453 37.0374271 21.798270000000002 35.9258271 21.80225 34.8046271 C 21.8058438 33.683827099999995 21.818656 32.5626271 21.820648000000002 31.441827099999998 C 21.82142924 30.7690271 21.807445 30.095827099999998 21.803851 29.4230271 C 21.796233800000003 28.0038271 21.785843000000003 26.5842271 21.787835 25.164627099999997 C 21.793850600000003 24.576227099999997 21.684635 23.992227099999997 21.466235 23.445427099999996 C 21.349045 23.305037099999996 21.181435 23.106247099999997 21.016235 22.905867099999995 C 20.853035000000002 22.714657099999993 20.826235 22.442667099999994 20.948619 22.223067099999994 C 21.053029000000002 22.147871099999996 21.164239000000002 22.081857099999993 21.280649 22.027047099999994 C 22.156649 21.704237099999993 23.057849 21.454647099999995 23.975049 21.281407099999992 C 24.564248999999997 21.171797099999992 25.169048999999998 21.17980709999999 25.755049 21.30461009999999 C 25.839461 21.33859409999999 25.918679 21.38379009999999 25.990669 21.43899009999999 C 26.036257 21.56379009999999 26.067037 21.69301009999999 26.083441 21.82501009999999 C 26.105043000000002 22.57181009999999 26.12266 23.31941009999999 26.12266 24.06621009999999 C 26.1274648 26.495010099999988 26.1254725 28.92381009999999 26.1254725 31.352210099999986 C 26.12586312 32.02461009999999 26.1570745 32.69221009999999 26.217464500000002 33.365410099999984 C 26.341874500000003 34.63101009999998 26.327894500000003 35.90621009999998 26.175512500000004 37.16861009999998 C 26.104300500000004 37.60181009999998 26.104300500000004 38.04421009999998 26.175512500000004 38.47741009999998 C 26.231920500000005 38.53979409999998 26.294732500000002 38.596200099999976 26.362742500000003 38.64581009999998 C 26.429150500000002 38.67940409999998 26.501142500000004 38.70100609999998 26.575122500000003 38.709014099999976 C 27.675522500000003 38.89979409999997 28.783922500000003 38.413774099999976 29.389122500000003 37.474614099999975 C 29.6091225 37.173014099999975 29.813922500000004 36.86021409999997 30.016722500000004 36.54701409999998 C 30.199102500000002 36.264634099999974 30.356292500000002 35.96461409999998 30.548682500000005 35.69021409999998 C 31.427482500000004 34.43381409999998 32.20588250000001 33.115014099999975 32.975882500000004 31.790614099999978 C 33.4070825 31.04781409999998 33.871522500000005 30.324214099999978 34.317482500000004 29.589814099999977 C 35.228282500000006 28.089414099999978 36.137482500000004 26.587814099999978 37.04468250000001 25.084614099999975 C 37.39230250000001 24.509014099999973 37.73352250000001 23.929814099999973 38.076682500000004 23.351814099999974 C 38.16906650000001 23.213024099999974 38.158674500000004 23.029434099999975 38.051057500000006 22.902254099999972 C 37.91867750000001 22.869871099999973 37.783477500000004 22.848270099999972 37.64745750000001 22.837878099999973 C 36.78785750000001 22.828268899999973 35.92745750000001 22.804675099999972 35.069457500000006 22.837878099999973 C 34.361857500000006 22.86506609999997 33.655057500000005 22.945848099999974 32.95225750000001 23.037448099999974 C 32.46705750000001 23.104244099999974 32.01105750000001 23.307838099999973 31.637057500000008 23.623848099999975 C 31.20505750000001 23.980648099999975 30.78465750000001 24.350648099999976 30.366257500000007 24.723448099999974 C 30.094657500000007 24.983838099999975 29.747057500000007 25.151048099999976 29.37381750000001 25.199808099999974 C 29.241437500000007 25.205823699999975 29.10905750000001 25.199417479999973 28.977837500000007 25.181410099999972 C 28.832637500000008 25.093794099999972 28.746627500000006 24.93379009999997 28.754247500000005 24.764170099999973 C 28.772255500000004 24.579370099999974 28.806671500000004 24.39616009999997 28.856277500000004 24.21737009999997 C 29.133897500000003 23.286970099999973 29.405117500000003 22.35457009999997 29.707077500000004 21.43257009999997 C 30.036297500000003 20.43737009999997 30.180277500000003 19.39017009999997 30.131877500000005 18.343370099999973 C 30.119494500000005 17.930570099999972 29.993477500000004 17.528570099999975 29.767457500000006 17.182970099999974 C 29.527847500000007 16.794570099999973 29.120217500000006 16.541370099999973 28.666257500000007 16.498170099999975 C 27.95985750000001 16.393760099999973 27.23865750000001 16.490943699999974 26.58505750000001 16.777740099999974 C 26.17905750000001 16.966530099999975 25.75225750000001 17.108910099999974 25.34225750000001 17.288900099999974 C 24.531857500000008 17.836900099999973 23.48585750000001 17.896140099999975 22.61905750000001 17.442920099999974 C 21.75225750000001 16.989320099999972 21.203857500000012 16.096520099999974 21.191857500000012 15.118520099999973 C 21.171857500000012 15.007310099999973 21.164669500000013 14.894500099999973 21.17025550000001 14.782110099999972 C 21.22627150000001 13.621710099999973 22.06825550000001 12.649710099999972 23.20865550000001 12.429710099999973 C 23.53986550000001 12.374906099999972 23.87345550000001 12.331702099999973 24.19625550000001 12.284910099999973 C 24.46504550000001 12.319324099999973 24.72305550000001 12.366510099999973 24.98345550000001 12.383698099999974 C 26.182255500000007 12.466082099999973 27.33705550000001 12.868898099999974 28.326655500000008 13.550498099999974 C 28.667435500000007 13.778898099999974 29.01141550000001 14.005698099999973 29.340655500000008 14.251298099999973 C 30.235455500000008 14.942098099999972 30.889855500000007 15.897298099999972 31.211455500000007 16.980898099999973 C 31.570675500000007 18.05009809999997 31.61625550000001 19.200098099999973 31.343055500000006 20.294498099999974 C 31.281843500000004 20.547698099999973 31.234655500000006 20.804898099999974 31.185435500000004 21.038858099999974 C 31.275043500000002 21.172058099999973 31.431055500000003 21.243658099999973 31.590275500000004 21.224878099999973 C 32.337475500000004 21.215659299999974 33.0850755 21.19925309999997 33.8318755 21.196870099999973 C 35.251475500000005 21.190463699999974 36.6714755 21.190463699999974 38.0914755 21.196870099999973 C 39.4734755 21.202456099999974 40.8562755 21.221675099999974 42.2386755 21.232065099999975 C 42.6586755 21.202456099999974 43.0798755 21.274449099999973 43.4662755 21.442455099999975 C 43.5334635 21.545265099999977 43.5718655 21.576475099999975 43.5718655 21.608075099999976 C 43.574678 21.942495099999977 43.574678 22.276475099999974 43.574678 22.657675099999977 C 43.019478 23.587275099999978 42.447078 24.54887509999998 41.871078 25.508875099999976 C 40.852678 27.206475099999977 39.856277999999996 28.918475099999977 38.804677999999996 30.595275099999977 C 37.991477999999994 31.892875099999976 37.186277999999994 33.195275099999975 36.411877999999994 34.51647509999998 C 36.07187799999999 35.09607509999998 35.75107799999999 35.68727509999998 35.407478 36.264875099999976 C 35.025878 36.90647509999997 34.628678 37.53767509999997 34.219477999999995 38.20367509999998 C 34.305066 38.269691099999974 34.381857999999994 38.380085099999974 34.462638 38.38328509999997 C 35.133838 38.430081099999974 35.807438 38.41449609999997 36.475438 38.33648909999997 C 36.956238 38.268089099999976 37.441798 38.23887309999997 37.927437999999995 38.248873099999976 C 38.674237999999995 38.23047509999998 39.418237999999995 38.144463099999975 40.149437999999996 37.991643099999976 C 40.555437999999995 37.91605509999997 40.938278 37.74684309999998 41.267438 37.498043099999975 C 41.727438 37.176833099999975 42.136238 36.788443099999974 42.481038 36.346043099999974 C 42.718658 36.04206309999997 43.113838 35.907243099999974 43.487438 36.00284309999997 C 43.636227999999996 36.030031099999974 43.757008 36.13843309999997 43.799817999999995 36.28323309999997 z M 60.055 36.4708 C 60.0533984 36.9188 60.026641 37.366159999999994 59.975428 37.8114 C 59.910624 38.17781 59.894216 38.5514 59.927028 38.9222 C 59.972224 39.24778 59.907809 39.57899999999999 59.743398 39.8634 C 59.543008 39.98899 59.304238 40.038199999999996 59.070638 40.0034 C 57.912638 40.0017984 56.755038 39.9934 55.597038000000005 39.9934 C 53.72983800000001 39.99379062 51.862638000000004 40.008986 49.99543800000001 40.0001968 C 48.50143800000001 39.9934 47.008638000000005 39.9605878 45.515038000000004 39.9366048 C 45.275038 39.9605888 45.036638 39.8757848 44.865438000000005 39.7061748 C 44.706648 39.335394799999996 44.728638000000004 38.9114148 44.92465800000001 38.5589748 C 45.045868000000006 38.327764800000004 45.18547800000001 38.1069748 45.343098000000005 37.898974800000005 C 46.31189800000001 36.57177480000001 47.197898 35.1861748 47.996298 33.749774800000004 C 48.725098 32.44657480000001 49.502298 31.175774800000006 50.343498000000004 29.937374800000004 C 51.325898 28.527774800000003 52.215498000000004 27.056174800000004 53.007898000000004 25.531374800000005 C 53.359888000000005 24.831774800000005 53.770298000000004 24.162174800000006 54.153898000000005 23.478974800000007 C 54.255498 23.357374800000006 54.303898000000004 23.199754800000008 54.28830800000001 23.042134800000007 C 54.19870000000001 22.997722800000005 54.103888000000005 22.965726800000006 54.00549800000001 22.948110800000006 C 52.62469800000001 22.886510800000007 51.24189800000001 22.898110800000005 49.86229800000001 22.982915800000004 C 49.37869800000001 23.020923800000006 48.90069800000001 23.115725800000003 48.43909800000001 23.264945800000003 C 47.861098000000005 23.432135800000005 47.339498000000006 23.7533458 46.93069800000001 24.194545800000004 C 46.70350800000001 24.442165800000005 46.48229800000001 24.696585800000005 46.24109800000001 24.929385800000002 C 45.967118000000006 25.2001658 45.55549800000001 25.276575800000003 45.202698000000005 25.121765800000002 C 45.142306000000005 25.0993828 45.10429800000001 25.015785800000003 45.020318 24.9209858 C 44.942310000000006 24.6886058 44.937114 24.4382258 45.005513 24.2026258 C 45.235513 23.2622258 45.478713 22.3250258 45.700713 21.4494258 C 45.838723 21.2394258 46.081533 21.1230158 46.331913 21.1474358 C 47.302713 21.1378266 48.273913 21.1450139 49.244313 21.1198188 C 52.453913 21.036614800000002 55.664713 21.1362248 58.876312999999996 21.1482168 C 59.026312999999995 21.14899804 59.172723 21.1738028 59.278712999999996 21.183411800000002 C 59.549493 21.2702078 59.741473 21.5114218 59.76547299999999 21.794611800000002 C 59.78469199999999 22.053401800000003 59.76949659999999 22.3146118 59.76949659999999 22.5938118 C 59.37551659999999 23.3482118 58.89229659999999 24.0562118 58.429496599999986 24.7782118 C 57.01949659999999 26.9770118 55.710296599999985 29.2402118 54.411896599999984 31.5082118 C 53.298296599999986 33.4526118 52.14429659999998 35.3718118 50.91589659999998 37.246211800000005 C 50.70269659999998 37.51820180000001 50.532306599999984 37.82141180000001 50.411536599999984 38.145411800000005 C 50.48755259999999 38.210607800000005 50.556776599999985 38.31662180000001 50.64516659999998 38.3366218 C 50.82836659999998 38.3734188 51.01477659999998 38.389825800000004 51.20116659999998 38.384629800000006 C 52.39516659999998 38.421035800000006 53.58996659999998 38.37103580000001 54.77676659999998 38.2350198 C 55.03395659999998 38.1962308 55.29756659999998 38.2014258 55.558766599999984 38.1862318 C 55.745176599999986 38.1758408 55.932356599999984 38.173028800000004 56.11792659999998 38.153809800000005 C 56.797126599999984 38.111817800000004 57.433526599999986 37.808609800000006 57.89312659999998 37.3070098 C 58.21433659999998 36.9454098 58.52792659999998 36.574609800000005 58.89872659999998 36.1462098 C 59.079116599999985 36.0726178 59.26552659999998 36.0142198 59.455926599999984 35.971009800000004 C 59.60471659999998 35.9386268 59.760306599999986 35.976635 59.87748659999998 36.074249800000004 C 59.99466659999998 36.171864600000006 60.06025659999998 36.3182698 60.05506659999998 36.47065980000001 z M 79.558 35.3744 C 79.69562 35.444008000000004 79.77417000000001 35.59315 79.75339000000001 35.745960000000004 C 79.701006 36.03877000000001 79.62741000000001 36.328 79.53343000000001 36.61036000000001 C 78.82543000000001 38.70436000000001 76.79223 40.055960000000006 74.58703000000001 39.898360000000004 C 73.87623 39.846368000000005 73.18463000000001 39.643980000000006 72.55823000000001 39.304 C 72.25823000000001 39.148410000000005 71.99663000000001 38.92842 71.79183 38.660000000000004 C 71.56863 38.366020000000006 71.34263 38.073640000000005 71.10263 37.762040000000006 C 70.78943000000001 38.006840000000004 70.49383 38.232440000000004 70.20423000000001 38.46564000000001 C 69.64863000000001 38.908840000000005 69.03663000000002 39.27684000000001 68.38423000000002 39.55924000000001 C 68.14544000000002 39.66483000000001 67.90307000000001 39.76444000000001 67.67183000000001 39.88604000000001 C 66.83103000000001 40.30564000000001 65.88743000000001 40.475640000000006 64.95303000000001 40.37644000000001 C 64.76745000000001 40.35964300000001 64.58385000000001 40.32804000000001 64.40307000000001 40.28245600000001 C 63.82107000000001 40.13925600000001 63.268270000000015 39.89643600000001 62.76947000000001 39.56445600000001 C 62.19387000000001 39.20644600000001 61.73627000000001 38.687656000000004 61.45307000000001 38.072056 C 61.17307000000001 37.456456 61.09108000000001 36.769256000000006 61.21827000000001 36.105256000000004 C 61.41385000000001 34.834056000000004 62.12103000000001 33.69845600000001 63.17587000000001 32.962856 C 64.02027000000001 32.344856 64.93267000000002 31.824856000000004 65.89467 31.413256 C 67.29347 30.788456 68.74787 30.296456 70.23867 29.943656 C 70.46547 29.932445 70.68066999999999 29.836856 70.84067 29.675646 C 70.926258 29.509626 70.96106 29.322016 70.94106000000001 29.136446 C 70.9390678 27.940846 70.963052 26.744046 70.91184100000001 25.549646 C 70.89582500000002 24.763645999999998 70.74821100000001 23.985646 70.475401 23.248046 C 70.342201 22.813246 70.03540100000001 22.452845999999997 69.627801 22.251246 C 69.591004 22.2420272 69.555417 22.230815999999997 69.51862100000001 22.22441 C 68.55262100000002 22.04883 67.856621 22.508039999999998 67.28462100000002 23.20845 C 66.73182100000001 23.88205 66.41462100000001 24.718049999999998 66.38182100000002 25.58885 C 66.55580100000002 26.26685 66.75979100000002 27.05965 66.95058100000001 27.80085 C 66.85659700000001 28.50885 66.31978100000002 29.07725 65.618181 29.21085 C 64.936581 29.42964 64.200181 29.40523 63.534181000000004 29.142022 C 63.396171 29.084406 63.262971 29.016002 63.135781 28.938002 C 62.608981 28.636402 62.236581 28.124002 62.111781 27.530002 C 62.017797 27.128002 62.006581 26.711602 62.079398 26.305202 C 62.236588 25.300402000000002 62.692158 24.366402 63.386998 23.624002 C 64.28939799999999 22.670402 65.393398 21.930402 66.61859799999999 21.458002 C 67.03939799999999 21.307222 67.46899799999998 21.182422 67.90539799999999 21.084022 C 68.230978 21.006406000000002 68.567798 20.975192 68.90015799999999 20.925972 C 70.13095799999999 20.859176 71.36375799999999 21.01558 72.538558 21.388372 C 73.124158 21.640752 73.63295799999999 22.041972 74.01535799999999 22.551972 C 74.72975799999999 23.476772 75.10735799999999 24.617572 75.086158 25.785972 C 75.072174 26.795572 75.067369 27.805172000000002 75.051783 28.814372000000002 C 75.0429938 29.412372 75.025807 30.009972 75.004595 30.607172000000002 C 74.992212 30.942752000000002 74.976197 31.278332000000002 74.941003 31.611972 C 74.85819099999999 32.505572 74.834593 33.403572000000004 74.870611 34.300372 C 74.8742048 35.053172 75.102991 35.787972 75.527811 36.409572000000004 C 75.609803 36.53355200000001 75.70902099999999 36.645552 75.822231 36.741952000000005 C 75.933831 36.839960000000005 76.066211 36.911562 76.209031 36.952342 C 77.14983099999999 37.168752000000005 78.122631 36.755542 78.62023099999999 35.928342 C 78.67382299999998 35.829942 78.725821 35.729162 78.778201 35.631542 C 78.830581 35.533922000000004 78.884181 35.435132 78.954571 35.308732000000006 C 79.152191 35.21674000000001 79.38457100000001 35.24193600000001 79.558171 35.374320000000004 z M 70.754 36.6231 C 70.782398 35.8523 70.7523984 35.0807 70.664 34.3143 C 70.616812 33.945510000000006 70.588804 33.574740000000006 70.579588 33.2027 C 70.5703692 32.6815 70.597166 32.1595 70.593182 31.6387 C 70.62279099999999 31.41511 70.559588 31.18954 70.418802 31.01394 C 70.247592 30.933940000000003 70.051572 30.92554 69.874402 30.990346000000002 C 69.518382 31.098356000000003 69.17120200000001 31.233546000000004 68.816402 31.345926000000002 C 68.286802 31.527526 67.78760199999999 31.787926000000002 67.335202 32.117526000000005 C 66.735202 32.507526000000006 66.290002 33.09472600000001 66.076402 33.777526 C 65.989606 34.061506 65.92281200000001 34.352286 65.834802 34.636286 C 65.68718199999999 35.177486 65.68718199999999 35.748686 65.834802 36.290285999999995 C 65.941992 36.895886 66.42800199999999 37.363085999999996 67.03760199999999 37.44668599999999 C 67.68560199999999 37.63547599999999 68.37320199999999 37.64309599999999 69.025202 37.46867799999999 C 69.671202 37.36105799999999 70.27200199999999 37.06707799999999 70.754002 36.62307799999999 z M 109.653 38.8972 C 109.84101000000001 39.13681 109.91499 39.44672 109.8562 39.74552 C 109.8162 39.88993 109.71659 40.00994 109.58218000000001 40.07552 C 109.36339000000001 40.120324 109.14178000000001 40.147119999999994 108.91898 40.155912 C 107.87298 40.14431 106.82618000000001 40.135521000000004 105.78138 40.086732 C 105.33698 40.041143999999996 104.88894 40.041143999999996 104.44458 40.086732 C 104.21536 40.136731999999995 103.97614 40.068334 103.80814000000001 39.904351999999996 C 103.65494000000001 39.619552 103.64814000000001 39.277952 103.79013200000001 38.987151999999995 C 103.97212200000001 38.709962 104.30609200000002 38.830352 104.49489200000001 38.641572 C 104.527275 38.573564 104.58446400000001 38.50915199999999 104.58645600000001 38.442741999999996 C 104.61126100000001 37.77314199999999 104.64524400000002 37.100342 104.64165200000001 36.427141999999996 C 104.628449 34.110741999999995 104.59724000000001 31.794741999999996 104.58602800000001 29.478341999999998 C 104.58243420000001 28.616342 104.44321800000002 27.767141999999996 104.38160800000001 26.910341999999996 C 104.32801600000002 26.426741999999997 104.20199800000002 25.953941999999998 104.00801800000002 25.507541999999997 C 103.83039800000002 25.050741999999996 103.50117800000002 24.669141999999997 103.07517800000002 24.426741999999997 C 102.65717800000002 24.176741999999997 102.18917800000003 24.023542 101.70437800000002 23.977541999999996 C 100.27557800000002 23.857931999999995 98.85037800000002 24.247541999999996 97.68117800000002 25.077541999999998 C 97.34597800000002 25.285942 97.03677800000001 25.532742 96.75913800000002 25.813501999999996 C 96.72433300000002 25.898697999999996 96.69831800000001 25.987481999999996 96.68191000000002 26.078261999999995 C 96.63589400000002 27.533861999999996 96.62191000000001 28.991461999999995 96.54113000000001 30.445061999999993 C 96.49554200000001 31.26586199999999 96.42035000000001 32.08346199999999 96.43715 32.90626199999999 C 96.43996250000001 33.05548199999999 96.4279704 33.20626199999999 96.4419548 33.35466199999999 C 96.57476480000001 34.73346199999999 96.5223828 36.11666199999999 96.5416028 37.49866199999999 C 96.5192198 37.80745199999999 96.5524228 38.11782199999999 96.63921880000001 38.41546199999999 L 97.37681880000001 38.815071999999994 C 97.51759880000002 39.204291999999995 97.63997880000001 39.557871999999996 97.26157880000001 39.845071999999995 C 96.8915788 39.922687999999994 96.5131788 39.95269199999999 96.1355788 39.93429199999999 C 95.46317880000001 39.94948699999999 94.79757880000001 39.989487999999994 94.1243788 40.055071999999996 C 93.3795788 40.10268799999999 92.6323788 40.10549999999999 91.8867788 40.062689199999994 C 91.7615788 40.034681199999994 91.6435788 39.98108919999999 91.5403688 39.9046792 C 91.4947808 39.8162792 91.4627928 39.7834692 91.4627928 39.749479199999996 C 91.46041 39.49185919999999 91.46041 39.231479199999995 91.46041 39.021079199999996 C 91.64001999999999 38.652679199999994 92.04881 38.8206892 92.24920999999999 38.582279199999995 C 92.284015 38.5178672 92.31003 38.4486492 92.32604599999999 38.37703919999999 C 92.377258 37.70703919999999 92.44647599999999 37.03943919999999 92.461666 36.366639199999995 C 92.484049 35.3590392 92.510454 34.34623919999999 92.45647079999999 33.34023919999999 C 92.38607879999999 32.110639199999994 92.38607879999999 30.878239199999992 92.45647079999999 29.64863919999999 C 92.5076828 28.79223919999999 92.46568959999999 27.92983919999999 92.46568959999999 27.07063919999999 C 92.47287719999999 26.88383919999999 92.4680724 26.696659199999992 92.45127559999999 26.510639199999993 C 92.32326559999998 25.133839199999993 92.28287559999998 23.750239199999992 92.33127559999998 22.36783919999999 C 92.32166639999998 20.31303919999999 92.33686159999998 18.257439199999993 92.33686159999998 16.20223919999999 C 92.33725221999998 15.86582919999999 92.32045559999997 15.52903919999999 92.30326759999998 15.19263919999999 C 92.28967359999999 14.83982919999999 92.18365759999999 14.496239199999989 91.99603759999998 14.19699919999999 L 91.50123759999998 13.81859919999999 C 91.37764759999999 13.626999199999991 91.36643759999998 13.38419919999999 91.47162859999999 13.18219919999999 C 91.5208486 13.12739519999999 91.57885859999999 13.08098919999999 91.64283859999999 13.04496919999999 C 92.13603859999999 12.87656919999999 92.63883859999999 12.72777919999999 93.12603859999999 12.54016919999999 C 94.04323859999998 12.22254919999999 94.99683859999999 12.02216919999999 95.9644386 11.944529199999991 C 96.13365859999999 11.93011519999999 96.3016686 11.98530919999999 96.42927859999999 12.097299199999991 C 96.55688859999998 12.209289199999992 96.63369859999999 12.36889919999999 96.64130859999999 12.538499199999992 C 96.65052739999999 12.651309199999991 96.65572259999999 12.762919199999992 96.65810559999998 12.874909199999992 L 96.65810559999998 13.323349199999992 C 96.66091809999999 14.144949199999992 96.66892559999998 14.963749199999992 96.75290959999998 15.785349199999992 C 96.81091759999998 16.41814919999999 96.80732159999998 17.054949199999992 96.74212859999999 17.687349199999993 C 96.68052859999999 18.35854919999999 96.65013659999998 19.02774919999999 96.64173859999998 19.700949199999993 C 96.62373059999999 21.083349199999994 96.62572259999999 22.465749199999994 96.62373059999999 23.848549199999994 C 96.62333997999998 23.987339199999994 96.5941216 24.139719199999995 96.72013859999998 24.250509199999993 C 96.78974659999999 24.23289219999999 96.87896859999998 24.23289219999999 96.92497859999999 24.190901199999992 C 97.11458859999999 24.01129119999999 97.29579859999998 23.82250119999999 97.47181859999999 23.629301199999993 C 97.92541859999999 23.131301199999992 98.4526186 22.705701199999993 99.03501859999999 22.367301199999993 C 99.96581859999999 21.809701199999992 100.9774186 21.400061199999993 102.03421859999999 21.15290119999999 C 103.02341859999999 20.94571119999999 104.0434186 20.926921199999992 105.03981859999999 21.097705199999993 C 105.4466186 21.16731319999999 105.83301859999999 21.326105199999994 106.1710186 21.56330519999999 C 106.89261859999999 22.038505199999992 107.4754186 22.69610519999999 107.8606186 23.469705199999993 C 108.18061859999999 24.103305199999994 108.4134186 24.777305199999994 108.55221859999999 25.47330519999999 C 108.81260859999999 26.75530519999999 108.94221859999999 28.06010519999999 108.9394086 29.36810519999999 C 108.91061959999999 31.83370519999999 108.9082366 34.30050519999999 108.90265059999999 36.76610519999999 C 108.85983859999999 37.39090519999999 108.88944759999998 38.01850519999999 108.99065859999999 38.63650519999999 z M 145.948 38.796 C 146.21800000000002 39.0728 146.12398000000002 39.39592 146.07878 39.682719999999996 C 146.013584 39.74713199999999 145.94119999999998 39.80354 145.8628 39.85115999999999 C 145.2252 40.077569999999994 144.5396 40.13396999999999 143.87359999999998 40.01474999999999 C 143.31799999999998 39.94674199999999 142.7584 39.91674199999999 142.19879999999998 39.925141999999994 C 141.71319999999997 39.92033719999999 141.22763999999998 39.928345099999994 140.742 39.92033719999999 C 140.55919 39.91713409999999 140.3768 39.884321199999995 140.2268 39.868305199999995 C 140.00481 39.62709519999999 139.93801 39.28070519999999 140.05481 38.9742652 C 140.2584 38.7050452 140.51801 38.7594652 140.74121 38.6378552 C 140.797618 38.5570752 140.837226 38.465865199999996 140.85801 38.3694552 C 140.877619 37.772655199999996 140.881604 37.175055199999996 140.885198 36.577455199999996 C 140.8928152 35.083855199999995 140.900432 33.589855199999995 140.907229 32.095855199999995 C 140.912815 30.937855199999994 140.940432 29.779455199999994 140.9168382 28.622255199999994 C 140.8896502 27.390255199999995 140.7396482 26.164655199999995 140.4696382 24.962655199999993 C 140.3520182 24.408655199999995 140.03963819999998 23.915455199999993 139.58923819999998 23.572255199999994 C 139.3816182 23.411045199999993 139.13239819999998 23.313035199999995 138.8707982 23.289835199999995 C 138.0103982 23.205423199999995 137.14359819999999 23.370615199999996 136.3747982 23.766195199999995 C 136.10639819999997 23.897795199999994 135.84959819999997 24.051395199999995 135.6067982 24.225795199999993 C 134.5179982 25.014195199999993 133.42439819999998 25.796995199999994 132.3567982 26.612595199999994 C 130.9547982 27.731795199999993 129.6379982 28.953795199999995 128.4175982 30.268195199999994 C 127.3231982 31.396195199999994 126.3719982 32.645395199999996 125.38039819999999 33.85979519999999 C 124.71999819999999 34.669795199999996 124.0363982 35.46139519999999 123.34319819999999 36.24419519999999 C 122.87279819999999 36.77499519999999 122.36119819999999 37.26859519999999 121.88199819999998 37.791795199999996 C 121.06119819999998 38.66499519999999 120.08559819999998 39.37819519999999 119.00439819999998 39.8949952 C 118.33679819999999 40.239415199999996 117.58199819999999 40.3786352 116.83519819999998 40.2958352 C 116.31599819999998 40.2378272 115.80199819999999 40.1394252 115.29799819999998 40.0014152 C 114.57439819999998 39.7950052 113.92039819999998 39.3962152 113.40519819999999 38.8478152 C 112.83679819999999 38.3010152 112.41279819999998 37.6218152 112.17159819999999 36.870615199999996 C 112.02518819999999 36.447815199999994 111.91397819999999 36.0133752 111.83956819999999 35.571815199999996 C 111.66315819999998 34.50301519999999 111.57874819999999 33.4214152 111.58714819999999 32.33821519999999 C 111.63355619999999 31.556615199999992 111.59156219999998 30.770215199999992 111.59156219999998 29.986215199999993 L 111.59156219999998 24.159015199999992 C 111.59156219999998 23.82221519999999 111.60714819999998 23.48581519999999 111.59996059999999 23.149415199999993 C 111.5839446 22.99019519999999 111.55714859999999 22.832185199999994 111.51914059999999 22.676615199999993 L 110.83194059999998 22.426225199999994 C 110.77315259999997 22.358217199999995 110.72393059999999 22.282205199999993 110.68592059999999 22.200605199999995 C 110.52112059999999 21.531805199999994 110.80791059999999 21.284205199999995 111.40868059999998 21.253405199999996 C 111.78106059999999 21.234186199999996 112.15504059999998 21.221803199999997 112.52828059999999 21.221803199999997 C 113.42388059999999 21.218990699999996 114.32028059999999 21.219771999999995 115.21748059999999 21.223756299999998 C 115.31626859999999 21.228561099999997 115.4146706 21.240162299999998 115.51186059999999 21.257780299999997 C 115.70186059999999 21.331372299999998 115.8242406 21.516960299999997 115.8174406 21.720540299999996 C 115.8366596 22.616940299999996 115.84185459999999 23.512940299999997 115.8654486 24.408940299999998 C 115.87826059999999 24.894140299999997 115.9238486 25.376940299999998 115.9438486 25.8613403 C 116.0050606 26.8673403 115.99947259999999 27.8761403 115.9274816 28.8809403 C 115.82146159999999 30.4461403 115.8094716 32.016140299999996 115.8918566 33.5825403 C 115.9210756 33.992540299999995 115.9814646 34.3997403 116.0722466 34.800540299999994 C 116.1582626 35.2417403 116.3274866 35.662540299999996 116.5698466 36.041340299999995 C 116.96183660000001 36.693340299999996 117.64624660000001 37.114940299999994 118.4050466 37.171740299999996 C 119.37824660000001 37.298930299999995 120.3646466 37.068540299999995 121.1810466 36.5241403 C 121.8382466 36.0981403 122.42264660000001 35.568900299999996 122.9114466 34.9569403 C 124.2494466 33.2533403 125.5358466 31.5117403 126.7554466 29.7201403 C 127.4402466 28.6949403 128.0494466 27.6209403 128.5778466 26.5069403 C 128.99784659999997 25.6749403 129.28824659999998 24.7833403 129.4386466 23.8633403 C 129.4242326 23.5201403 129.2562266 23.2017403 128.98104659999998 22.9957403 C 128.76264659999998 22.8437503 128.6506566 22.5801403 128.6926466 22.3173403 C 128.7786626 22.1449603 128.9358466 22.0189403 129.12304659999998 21.973360300000003 C 129.98704659999999 21.737340300000003 130.84624659999997 21.475360300000002 131.72144659999998 21.294560300000004 C 132.36584659999997 21.150150300000004 133.0350466 21.154560300000004 133.67744659999997 21.307763300000005 C 134.12464659999998 21.806963300000003 133.75424259999997 22.455763300000005 134.10464659999997 22.977763300000007 L 134.53704659999997 23.172963300000006 C 134.88903659999997 23.142572300000005 135.22504659999996 23.011363300000006 135.50428659999997 22.794173300000008 C 135.71467659999996 22.638973300000007 135.92068659999998 22.477763300000007 136.13548659999998 22.327773300000008 C 136.43946659999997 22.114183300000008 136.7478866 21.903773300000008 137.06068659999997 21.70057330000001 C 137.93028659999996 21.18057330000001 138.91828659999996 20.88977330000001 139.93108659999996 20.85581330000001 C 140.45548659999997 20.83581330000001 140.97868659999995 20.92300130000001 141.46828659999997 21.11179330000001 C 142.81188659999998 21.522593300000008 143.89548659999997 22.52259330000001 144.41268659999997 23.828993300000008 C 144.86828659999998 24.975393300000007 145.12948659999998 26.18979330000001 145.18588659999998 27.422593300000006 C 145.29029659999998 29.288593300000006 145.22069159999998 31.156193300000005 145.20389459999998 33.02379330000001 C 145.18869959999998 34.704593300000006 145.18869959999998 36.384593300000006 145.18869959999998 38.06699330000001 C 145.18869959999998 38.21500330000001 145.21229359999998 38.363013300000006 145.22268359999998 38.48379330000001 C 145.4010836 38.78301330000001 145.7170836 38.66262330000001 145.94788359999998 38.79582330000001 z M 134.668 38.8204 C 134.90242 39.02079 134.96687 39.3572 134.82327 39.63 C 134.778858 39.73199 134.70124 39.81598 134.60323 39.86836 C 134.47361999999998 39.940744 134.33323 39.99195 134.18723 40.019960000000005 C 134.00403 40.05554600000001 133.81801 40.073944000000004 133.63159 40.07515600000001 C 132.40118999999999 40.088750000000005 131.17078999999998 40.09996100000001 129.94079 40.102773000000006 C 129.52759 40.137578000000005 129.11518999999998 40.02558500000001 128.77639 39.786793 C 128.54037 39.458393 128.688774 39.153593 128.82115399999998 38.823993 L 129.353154 38.661183 C 129.463934 38.558803000000005 129.524714 38.412783000000005 129.51913399999998 38.262003 C 129.5175324 37.330003 129.50593099999998 36.397603 129.51151679999998 35.465603 C 129.5175324 34.496403 129.52432879999998 33.526003 129.5595248 32.558803000000005 C 129.58714179999998 31.814803000000005 129.6559328 31.072403000000005 129.7135448 30.329603000000006 C 129.7387398 29.877603000000004 129.9167448 29.447603000000004 130.21834479999998 29.109603000000007 C 130.99794479999997 28.250403000000006 131.96114479999997 27.578003000000006 133.0363448 27.142003000000006 C 133.2967348 27.074815000000005 133.5699448 27.190403000000007 133.7031448 27.423993000000007 C 133.7547448 27.522393000000008 133.7931448 27.627193000000005 133.8179448 27.735983000000008 C 133.8759528 28.103603000000007 133.9255648 28.47282300000001 133.9599748 28.84358300000001 C 133.9807558 29.065183000000008 133.9655608 29.28998300000001 133.9655608 29.51398300000001 C 133.9511468 32.04918300000001 133.9379438 34.58398300000001 133.92595179999998 37.11878300000001 C 133.89556079999997 37.62398300000001 133.94434979999997 38.13118300000001 134.07154179999998 38.62158300000001 z M 122.15200000000002 22.445 C 122.10399200000002 22.388592 122.03192000000001 22.339760000000002 122.01231000000001 22.27336 C 121.81551000000002 21.69056 121.98750500000001 21.35416 122.53431000000002 21.31216 C 123.16711000000002 21.263759999999998 123.80231000000002 21.245752 124.43671000000002 21.23134 C 125.14631000000001 21.216926 125.85591000000002 21.216926 126.56551000000002 21.216926 C 126.63711000000002 21.224934 126.70789000000002 21.241731 126.77590000000002 21.266146 C 126.91430000000003 21.330949999999998 127.01032000000002 21.462166 127.03032000000002 21.613766 C 127.05910900000002 21.835365999999997 127.07391200000002 22.058965999999998 127.07469600000002 22.282566 C 127.07789910000001 23.925766 127.06270400000001 25.569366 127.08192240000001 27.212965999999998 C 127.10750840000001 27.926565999999998 126.9146924 28.630965999999997 126.5295224 29.231765999999997 C 126.2651024 29.638565999999997 125.99712240000001 30.044165999999997 125.7183224 30.440965999999996 C 125.1395224 31.266565999999997 124.5559224 32.088165999999994 123.96712240000001 32.906566 C 123.8159124 33.119375999999995 123.6491124 33.320606 123.46712240000001 33.508206 C 123.3523224 33.599418 123.22630240000001 33.675826 123.09232240000001 33.735436 L 122.80873240000001 33.474226 C 122.79634940000001 33.225436 122.77236540000001 32.966226 122.77236540000001 32.706626 C 122.76435740000001 30.652226 122.75474840000001 28.598226 122.75916240000001 26.544226000000002 C 122.76115460000001 25.498626 122.79115440000001 24.453026 122.80756240000001 23.407826 C 122.8431484 23.193846 122.8211564 22.974626 122.74397040000001 22.772226 C 122.5963504 22.540626 122.32757040000001 22.580626 122.15197040000001 22.445035999999998 z M 127.63500000000002 37.9203 L 128.27548000000002 37.869208 C 128.45829 38.167218 128.47509000000002 38.538008 128.32067600000002 38.851608 C 128.28907400000003 38.918016 128.24227600000003 38.975628 128.18348600000002 39.020047999999996 C 128.131494 39.073252 128.06828600000003 39.114459999999994 127.99906600000001 39.141647999999996 C 127.21626600000002 39.372428 126.44266600000002 39.646007999999995 125.64346600000002 39.81440799999999 C 124.75866600000002 39.985187999999994 123.85026600000002 39.99596799999999 122.96186600000001 39.84557999999999 C 122.89307800000002 39.71397999999999 122.84147600000001 39.57397999999999 122.80827600000002 39.42917999999999 C 122.73429200000002 38.76077999999999 122.82230000000003 38.08437999999999 123.06589600000002 37.457579999999986 C 123.09827900000002 37.39078399999999 123.13788800000002 37.32757999999998 123.18347600000003 37.269179999999984 C 124.26427600000002 36.14237999999998 125.26627600000003 34.94437999999998 126.32107600000003 33.79437999999998 C 126.46986600000004 33.56597999999998 126.71107600000003 33.41316999999998 126.98147600000003 33.37637999999998 C 127.04186800000002 33.438763999999985 127.15065600000003 33.502749999999985 127.18186600000003 33.59352999999998 C 127.22425000000003 33.73512999999998 127.24303800000003 33.88313999999998 127.23663000000003 34.03112999999998 C 127.23463780000003 34.51312999999998 127.20663000000003 34.99792999999998 127.21584900000003 35.48072999999998 C 127.22706000000004 36.11152999999998 127.25307500000004 36.74272999999998 127.29506900000004 37.37352999999998 C 127.30186580000004 37.60352999999998 127.43186900000003 37.81232999999998 127.63506900000004 37.92032999999998 z M 160.37300000000002 35.5576 C 160.47698000000003 35.669200000000004 160.51402000000002 35.828070000000004 160.46842800000002 35.97408 C 160.41081200000002 36.228500000000004 160.332018 36.47772 160.232018 36.71892 C 159.599218 38.214119999999994 158.432818 39.42012 156.95921800000002 40.10252 C 156.55681800000002 40.3033 156.11761800000002 40.42049 155.66841800000003 40.4469 C 155.51919800000002 40.4492828 155.36997800000003 40.462486 155.22277800000003 40.4869 C 154.06757800000003 40.67491 152.88477800000004 40.4085 151.92157800000004 39.7437 C 151.70036800000003 39.6053 151.48877800000005 39.451319999999996 151.27397800000003 39.302899999999994 C 150.59277800000004 38.826499999999996 150.10877800000003 38.11769999999999 149.91277800000003 37.30969999999999 C 149.61515800000004 36.30649999999999 149.46393800000004 35.26529999999999 149.46433800000003 34.21889999999999 C 149.47754100000003 33.696099999999994 149.48195500000003 33.17329999999999 149.47797100000003 32.65009999999999 C 149.46117400000003 30.522499999999987 149.44676 28.394099999999987 149.41515900000002 26.26569999999999 C 149.40277600000002 25.44649999999999 149.222779 24.64329999999999 149.14835900000003 23.880499999999987 C 149.05156300000002 23.737689999999986 148.89116900000002 23.651279999999986 148.71879900000002 23.648899999999987 C 148.533599 23.660891999999986 148.350399 23.697299999999988 148.16559900000001 23.715695999999987 C 147.943609 23.736906999999988 147.72039900000001 23.760891999999988 147.497599 23.764483999999985 C 147.345999 23.763273099999985 147.203179 23.693271999999986 147.108769 23.574873999999987 C 147.014357 23.456083999999986 146.978769 23.300893999999985 147.01197299999998 23.153273999999985 C 147.03876999999997 22.991673999999986 147.13275299999998 22.848853999999985 147.270763 22.761243999999987 C 147.594743 22.670851999999986 147.949163 22.56245399999999 148.309563 22.471243999999988 C 149.371963 22.21163399999999 150.306363 21.581643999999987 150.944763 20.694043999999987 C 151.604763 19.83524399999999 152.142763 18.889243999999987 152.543163 17.882843999999988 C 152.635975 17.639643999999986 152.74199299999998 17.401643999999987 152.832383 17.18444399999999 C 152.925195 17.13405199999999 152.988403 17.07284399999999 153.05441299999998 17.068853999999988 C 153.354413 17.05404899999999 153.503213 17.155649999999987 153.545213 17.390843999999987 C 153.76079299999998 18.454043999999985 153.792793 19.546443999999987 153.639589 20.62044399999999 C 153.629589 20.73442399999999 153.628808 20.84884399999999 153.6368156 20.962823999999987 C 153.72603560000002 21.028019999999987 153.8256456 21.07680399999999 153.9312356 21.10720399999999 C 154.19084560000002 21.12720399999999 154.4532356 21.112399199999988 154.7139956 21.114781999999988 C 155.6103956 21.123571199999986 156.5067956 21.11517261999999 157.4019956 21.151187999999987 C 157.88359559999998 21.170796999999986 158.3611956 21.267207999999986 158.7479956 21.316807999999988 C 158.9892056 21.420397999999988 159.1424156 21.66118799999999 159.1347956 21.92356799999999 C 159.14920959999998 22.18434799999999 159.1379987 22.44952799999999 159.14920959999998 22.707567999999988 C 159.1599906 22.965577999999987 159.18319359999998 23.222767999999988 159.1992096 23.44796799999999 C 159.1272176 23.63956799999999 158.9440096 23.76718799999999 158.7388096 23.76757799999999 C 158.4043896 23.78238299999999 158.06800959999998 23.77597639999999 157.73160959999998 23.77597639999999 C 156.7232096 23.77078119999999 155.71680959999998 23.76199239999999 154.7072096 23.75718739999999 C 154.4120096 23.743203399999988 154.1164096 23.78281239999999 153.83520959999998 23.87402739999999 C 153.7775936 23.97800739999999 153.7352096 24.089607399999988 153.7087996 24.20562739999999 C 153.6864166 24.61482739999999 153.6752056 25.02522739999999 153.6752056 25.43522739999999 C 153.6771978 26.14482739999999 153.6923936 26.854027399999993 153.7004006 27.56322739999999 C 153.7127836 27.74963739999999 153.7095802 27.937247399999993 153.6915726 28.123267399999992 C 153.5679826 29.311667399999994 153.5287626 30.506867399999994 153.5743426 31.700867399999993 C 153.5619596 32.44766739999999 153.5623506 33.19446739999999 153.5475456 33.941267399999994 C 153.57152960000002 34.687267399999996 153.6571156 35.43006739999999 153.8039156 36.16206739999999 C 153.8703236 36.45327739999999 153.98391560000002 36.73166739999999 154.1403256 36.98610739999999 C 154.22954560000002 37.15008739999999 154.35032560000002 37.294507399999986 154.4955256 37.41170739999999 C 155.0555256 37.85890739999999 155.7563256 38.09170739999999 156.47272560000002 38.06810739999999 C 157.0383256 38.048107399999985 157.58232560000002 37.843307399999986 158.0203256 37.48490739999999 C 158.5675256 37.08932739999999 159.0143256 36.57054739999999 159.3243256 35.97050739999999 C 159.4203416 35.771717399999986 159.5251456 35.57652739999999 159.6159256 35.39934739999999 C 159.8791256 35.34415139999999 160.1539256 35.401339599999986 160.3731656 35.55774739999999 z" stroke-linecap="round" />
</g>
</svg>