<?xml version="1.0" encoding="UTF-8" standalone="no" ?>
<!DOCTYPE svg PUBLIC "-//W3C//DTD SVG 1.1//EN" "http://www.w3.org/Graphics/SVG/1.1/DTD/svg11.dtd">
<svg xmlns="http://www.w3.org/2000/svg" xmlns:xlink="http://www.w3.org/1999/xlink" version="1.1" width="200" height="200" viewBox="0 0 200 200" xml:space="preserve">
<desc>Created with Fabric.js 5.2.4</desc>
<defs>
</defs>
<rect x="0" y="0" width="100%" height="100%" fill="transparent"></rect>
<g transform="matrix(1 0 0 1 100 100)" id="0b9e3efe-619d-45bb-9f63-8e19342dc98e"  >
<rect style="stroke: none; stroke-width: 1; stroke-dasharray: none; stroke-linecap: butt; stroke-dashoffset: 0; stroke-linejoin: miter; stroke-miterlimit: 4; fill: rgb(255,255,255); fill-rule: nonzero; opacity: 1; visibility: hidden;" vector-effect="non-scaling-stroke"  x="-100" y="-100" rx="0" ry="0" width="200" height="200" />
</g>
<g transform="matrix(Infinity NaN NaN Infinity 0 0)" id="39b66644-c849-4439-a2e3-57e8a12d1e15"  >
</g>
<g transform="matrix(0.96 0 0 1 201.29 100)"  >
<g style=""   >
		<g transform="matrix(2.46 0 0 2.46 -112.25 -0.02)" id="SvgjsG4537"  >
<path style="stroke: none; stroke-width: 1; stroke-dasharray: none; stroke-linecap: butt; stroke-dashoffset: 0; stroke-linejoin: miter; stroke-miterlimit: 4; fill: rgb(0,0,0); fill-rule: nonzero; opacity: 1;" vector-effect="non-scaling-stroke"  transform=" translate(-46.35, -49.11)" d="M 81.008 80.659 L 64.38799999999999 22.026000000000003 C 65.12799999999999 20.789 67.451 15.950000000000003 61.78199999999999 11.531000000000004 C 61.51099999999999 11.318000000000005 61.14799999999999 11.262000000000004 60.822999999999986 11.381000000000004 C 60.453999999999986 11.517000000000003 23.777999999999984 25.242000000000004 11.555999999999983 52.093 C 11.460999999999983 52.300000000000004 11.440999999999983 52.534000000000006 11.496999999999984 52.755 C 11.911999999999983 54.374 13.600999999999985 57.435 17.020999999999983 57.436 L 17.021999999999984 57.436 C 17.602999999999984 57.436 18.213999999999984 57.346 18.844999999999985 57.17 L 77.19199999999998 86.796 C 77.30199999999998 86.852 77.42199999999998 86.887 77.54599999999998 86.9 C 77.57699999999998 86.903 77.65599999999998 86.91000000000001 77.77299999999998 86.91000000000001 C 78.25299999999999 86.91000000000001 79.36099999999998 86.796 80.22599999999998 85.84800000000001 C 81.205 84.774 81.476 83.056 81.008 80.659 z M 69.405 47.148 C 69.405 47.148 61.041 53.456 65.615 58.477000000000004 C 65.615 58.477000000000004 70.732 65.15700000000001 73.642 61.998000000000005 L 79.064 81.12100000000001 C 79.14099999999999 81.522 79.193 81.897 79.21799999999999 82.24400000000001 C 76.59899999999999 77.54000000000002 71.74699999999999 80.45500000000001 70.62499999999999 81.22100000000002 L 65.45299999999999 78.59500000000001 L 65.585 78.45700000000001 L 61.63999999999999 74.68400000000001 L 60.94899999999999 75.40700000000001 L 62.956999999999994 77.32700000000001 L 56.510999999999996 74.055 C 58.056999999999995 72.605 57.208 68.042 57.208 68.042 C 57.208 64.611 51.891 60.495000000000005 51.891 60.495000000000005 C 45.888 57.57900000000001 37.311 64.268 37.311 64.268 L 38.411 64.864 L 20.604000000000003 55.822 C 23.884000000000004 51.718 40.08500000000001 32.504000000000005 62.625 23.136000000000003 L 69.405 47.148 z" stroke-linecap="round" />
</g>
		<g transform="matrix(2.46 0 0 2.46 -111.95 -10.94)" id="SvgjsG4537"  >
<path style="stroke: none; stroke-width: 1; stroke-dasharray: none; stroke-linecap: butt; stroke-dashoffset: 0; stroke-linejoin: miter; stroke-miterlimit: 4; fill: rgb(0,0,0); fill-rule: nonzero; opacity: 1;" vector-effect="non-scaling-stroke"  transform=" translate(-46.47, -44.67)" d="M 39.509 39.152 C 36.402 42.258 37.373 48.86 37.373 48.86 C 43.003 54.103 48.44 52.549 48.44 52.549 C 59.507 52.938 54.653999999999996 40.51 54.653999999999996 40.51 C 50.189 32.55 39.509 39.152 39.509 39.152 z" stroke-linecap="round" />
</g>
		<g transform="matrix(-0.78 -2.33 2.33 -0.78 -40.31 66.04)" id="SvgjsG4537"  >
<rect style="stroke: none; stroke-width: 1; stroke-dasharray: none; stroke-linecap: butt; stroke-dashoffset: 0; stroke-linejoin: miter; stroke-miterlimit: 4; fill: rgb(0,0,0); fill-rule: nonzero; opacity: 1;" vector-effect="non-scaling-stroke"  x="-1.8985" y="-0.5005" rx="0" ry="0" width="3.797" height="1.001" />
</g>
		<g transform="matrix(-2.31 -0.83 0.83 -2.31 -108.61 19.23)" id="SvgjsG4537"  >
<rect style="stroke: none; stroke-width: 1; stroke-dasharray: none; stroke-linecap: butt; stroke-dashoffset: 0; stroke-linejoin: miter; stroke-miterlimit: 4; fill: rgb(0,0,0); fill-rule: nonzero; opacity: 1;" vector-effect="non-scaling-stroke"  x="-2.279" y="-0.5005" rx="0" ry="0" width="4.558" height="1.001" />
</g>
		<g transform="matrix(-1.99 -1.45 1.45 -1.99 -153.51 2.79)" id="SvgjsG4537"  >
<rect style="stroke: none; stroke-width: 1; stroke-dasharray: none; stroke-linecap: butt; stroke-dashoffset: 0; stroke-linejoin: miter; stroke-miterlimit: 4; fill: rgb(0,0,0); fill-rule: nonzero; opacity: 1;" vector-effect="non-scaling-stroke"  x="-0.5" y="-1.1665" rx="0" ry="0" width="1" height="2.333" />
</g>
		<g transform="matrix(2.08 1.3 -1.3 2.08 -75.93 1.31)" id="SvgjsG4537"  >
<rect style="stroke: none; stroke-width: 1; stroke-dasharray: none; stroke-linecap: butt; stroke-dashoffset: 0; stroke-linejoin: miter; stroke-miterlimit: 4; fill: rgb(0,0,0); fill-rule: nonzero; opacity: 1;" vector-effect="non-scaling-stroke"  x="-1.6185" y="-0.4995" rx="0" ry="0" width="3.237" height="0.999" />
</g>
		<g transform="matrix(-2.37 -0.66 0.66 -2.37 -72.77 36.32)" id="SvgjsG4537"  >
<rect style="stroke: none; stroke-width: 1; stroke-dasharray: none; stroke-linecap: butt; stroke-dashoffset: 0; stroke-linejoin: miter; stroke-miterlimit: 4; fill: rgb(0,0,0); fill-rule: nonzero; opacity: 1;" vector-effect="non-scaling-stroke"  x="-0.4995" y="-1.6025" rx="0" ry="0" width="0.999" height="3.205" />
</g>
		<g transform="matrix(2.46 0 0 2.46 -140.33 17.47)" id="SvgjsG4537"  >
<path style="stroke: none; stroke-width: 1; stroke-dasharray: none; stroke-linecap: butt; stroke-dashoffset: 0; stroke-linejoin: miter; stroke-miterlimit: 4; fill: rgb(0,0,0); fill-rule: nonzero; opacity: 1;" vector-effect="non-scaling-stroke"  transform=" translate(-34.93, -56.23)" d="M 36.872 54.232 C 36.139 53.373 35.195 52.838 34.164 52.421 C 32.898 51.91 31.419 52.967999999999996 31.089000000000002 54.167 C 30.703000000000003 55.57 31.544 56.688 32.77 57.211 L 32.776 57.217999999999996 C 32.516000000000005 57.104 32.486000000000004 57.098 32.709 57.208 L 32.873000000000005 57.312 C 33.035000000000004 57.455999999999996 33.193000000000005 57.605999999999995 33.337 57.766999999999996 L 33.378 57.815999999999995 L 33.569 58.06399999999999 C 33.775000000000006 58.34899999999999 33.972 58.64099999999999 34.176 58.92799999999999 C 34.963 60.03699999999999 36.343 60.55899999999999 37.596000000000004 59.82399999999999 C 38.694 59.18099999999999 39.283 57.51699999999999 38.493 56.40399999999999 C 37.969 55.667 37.46 54.921 36.872 54.232 z M 32.783 57.219 L 32.836 57.244 L 32.791 57.224 L 32.783 57.219 z" stroke-linecap="round" />
</g>
		<g transform="matrix(2.46 0 0 2.46 -58.82 52.96)" id="SvgjsG4537"  >
<path style="stroke: none; stroke-width: 1; stroke-dasharray: none; stroke-linecap: butt; stroke-dashoffset: 0; stroke-linejoin: miter; stroke-miterlimit: 4; fill: rgb(0,0,0); fill-rule: nonzero; opacity: 1;" vector-effect="non-scaling-stroke"  transform=" translate(-68.08, -70.67)" d="M 70.402 69.818 L 70.301 69.696 L 70.179 69.529 C 69.806 69.00999999999999 69.477 68.459 69.158 67.905 C 68.478 66.726 66.908 66.322 65.738 67.009 C 64.55799999999999 67.699 64.16 69.248 64.842 70.429 C 65.565 71.683 66.385 72.897 67.4 73.935 C 68.352 74.91 69.98 74.89 70.935 73.935 C 71.907 72.96300000000001 71.887 71.373 70.935 70.4 C 70.751 70.211 70.574 70.018 70.402 69.818 z" stroke-linecap="round" />
</g>
		<g transform="matrix(2.46 0 0 2.46 -80.14 -34.51)" id="SvgjsG4537"  >
<path style="stroke: none; stroke-width: 1; stroke-dasharray: none; stroke-linecap: butt; stroke-dashoffset: 0; stroke-linejoin: miter; stroke-miterlimit: 4; fill: rgb(0,0,0); fill-rule: nonzero; opacity: 1;" vector-effect="non-scaling-stroke"  transform=" translate(-59.41, -35.08)" d="M 60.899 39.268 C 61.76 40.326 63.545 40.158 64.434 39.268 C 65.471 38.232 65.29299999999999 36.788000000000004 64.434 35.733000000000004 C 63.842 35.005 63.763 33.62800000000001 63.666 32.667 C 63.529999999999994 31.312 62.632 30.167 61.166 30.167 C 59.906 30.167 58.528999999999996 31.309 58.666 32.667 C 58.76199999999999 33.619 58.879 34.525 59.07599999999999 35.394 L 53.82299999999999 34.586 L 53.67099999999999 35.574 L 59.37499999999999 36.451 C 59.702 37.436 60.17 38.373 60.899 39.268 z" stroke-linecap="round" />
</g>
</g>
</g>
</svg>